<?xml version="1.0" standalone="no"?>
<svg xmlns:xlink="http://www.w3.org/1999/xlink" id="wave" style="transform:rotate(180deg); transition: 0.3s" viewBox="0 0 1440 490" version="1.1" xmlns="http://www.w3.org/2000/svg"><defs><linearGradient id="sw-gradient-0" x1="0" x2="0" y1="1" y2="0"><stop stop-color="rgba(243, 106, 62, 1)" offset="0%"/><stop stop-color="rgba(255, 179, 11, 1)" offset="100%"/></linearGradient></defs><path style="transform:translate(0, 0px); opacity:1" fill="url(#sw-gradient-0)" d="M0,49L21.8,73.5C43.6,98,87,147,131,212.3C174.5,278,218,359,262,343C305.5,327,349,212,393,155.2C436.4,98,480,98,524,114.3C567.3,131,611,163,655,147C698.2,131,742,65,785,81.7C829.1,98,873,196,916,204.2C960,212,1004,131,1047,147C1090.9,163,1135,278,1178,269.5C1221.8,261,1265,131,1309,98C1352.7,65,1396,131,1440,163.3C1483.6,196,1527,196,1571,171.5C1614.5,147,1658,98,1702,98C1745.5,98,1789,147,1833,163.3C1876.4,180,1920,163,1964,204.2C2007.3,245,2051,343,2095,343C2138.2,343,2182,245,2225,245C2269.1,245,2313,343,2356,343C2400,343,2444,245,2487,220.5C2530.9,196,2575,245,2618,228.7C2661.8,212,2705,131,2749,138.8C2792.7,147,2836,245,2880,269.5C2923.6,294,2967,245,3011,261.3C3054.5,278,3098,359,3120,400.2L3141.8,441L3141.8,490L3120,490C3098.2,490,3055,490,3011,490C2967.3,490,2924,490,2880,490C2836.4,490,2793,490,2749,490C2705.5,490,2662,490,2618,490C2574.5,490,2531,490,2487,490C2443.6,490,2400,490,2356,490C2312.7,490,2269,490,2225,490C2181.8,490,2138,490,2095,490C2050.9,490,2007,490,1964,490C1920,490,1876,490,1833,490C1789.1,490,1745,490,1702,490C1658.2,490,1615,490,1571,490C1527.3,490,1484,490,1440,490C1396.4,490,1353,490,1309,490C1265.5,490,1222,490,1178,490C1134.5,490,1091,490,1047,490C1003.6,490,960,490,916,490C872.7,490,829,490,785,490C741.8,490,698,490,655,490C610.9,490,567,490,524,490C480,490,436,490,393,490C349.1,490,305,490,262,490C218.2,490,175,490,131,490C87.3,490,44,490,22,490L0,490Z"/></svg>