<?xml version="1.0" standalone="no"?>
<svg xmlns:xlink="http://www.w3.org/1999/xlink" id="wave" style="transform:rotate(0deg); transition: 0.3s" viewBox="0 0 1440 490" version="1.1" xmlns="http://www.w3.org/2000/svg"><defs><linearGradient id="sw-gradient-0" x1="0" x2="0" y1="1" y2="0"><stop stop-color="rgba(243, 106, 62, 1)" offset="0%"/><stop stop-color="rgba(255, 179, 11, 1)" offset="100%"/></linearGradient></defs><path style="transform:translate(0, 0px); opacity:1" fill="url(#sw-gradient-0)" d="M0,147L21.8,179.7C43.6,212,87,278,131,269.5C174.5,261,218,180,262,138.8C305.5,98,349,98,393,147C436.4,196,480,294,524,326.7C567.3,359,611,327,655,310.3C698.2,294,742,294,785,277.7C829.1,261,873,229,916,253.2C960,278,1004,359,1047,326.7C1090.9,294,1135,147,1178,89.8C1221.8,33,1265,65,1309,98C1352.7,131,1396,163,1440,212.3C1483.6,261,1527,327,1571,310.3C1614.5,294,1658,196,1702,179.7C1745.5,163,1789,229,1833,269.5C1876.4,310,1920,327,1964,310.3C2007.3,294,2051,245,2095,220.5C2138.2,196,2182,196,2225,163.3C2269.1,131,2313,65,2356,81.7C2400,98,2444,196,2487,220.5C2530.9,245,2575,196,2618,171.5C2661.8,147,2705,147,2749,179.7C2792.7,212,2836,278,2880,261.3C2923.6,245,2967,147,3011,122.5C3054.5,98,3098,147,3120,171.5L3141.8,196L3141.8,490L3120,490C3098.2,490,3055,490,3011,490C2967.3,490,2924,490,2880,490C2836.4,490,2793,490,2749,490C2705.5,490,2662,490,2618,490C2574.5,490,2531,490,2487,490C2443.6,490,2400,490,2356,490C2312.7,490,2269,490,2225,490C2181.8,490,2138,490,2095,490C2050.9,490,2007,490,1964,490C1920,490,1876,490,1833,490C1789.1,490,1745,490,1702,490C1658.2,490,1615,490,1571,490C1527.3,490,1484,490,1440,490C1396.4,490,1353,490,1309,490C1265.5,490,1222,490,1178,490C1134.5,490,1091,490,1047,490C1003.6,490,960,490,916,490C872.7,490,829,490,785,490C741.8,490,698,490,655,490C610.9,490,567,490,524,490C480,490,436,490,393,490C349.1,490,305,490,262,490C218.2,490,175,490,131,490C87.3,490,44,490,22,490L0,490Z"/></svg>