<?xml version="1.0" standalone="no"?>
<svg xmlns:xlink="http://www.w3.org/1999/xlink" id="wave" style="transform:rotate(0deg); transition: 0.3s" viewBox="0 0 1440 490" version="1.1" xmlns="http://www.w3.org/2000/svg"><defs><linearGradient id="sw-gradient-0" x1="0" x2="0" y1="1" y2="0"><stop stop-color="rgba(243, 106, 62, 1)" offset="0%"/><stop stop-color="rgba(255, 179, 11, 1)" offset="100%"/></linearGradient></defs><path style="transform:translate(0, 0px); opacity:1" fill="url(#sw-gradient-0)" d="M0,392L18.5,326.7C36.9,261,74,131,111,106.2C147.7,82,185,163,222,179.7C258.5,196,295,147,332,171.5C369.2,196,406,294,443,302.2C480,310,517,229,554,171.5C590.8,114,628,82,665,65.3C701.5,49,738,49,775,40.8C812.3,33,849,16,886,40.8C923.1,65,960,131,997,196C1033.8,261,1071,327,1108,310.3C1144.6,294,1182,196,1218,171.5C1255.4,147,1292,196,1329,179.7C1366.2,163,1403,82,1440,89.8C1476.9,98,1514,196,1551,212.3C1587.7,229,1625,163,1662,147C1698.5,131,1735,163,1772,179.7C1809.2,196,1846,196,1883,163.3C1920,131,1957,65,1994,49C2030.8,33,2068,65,2105,122.5C2141.5,180,2178,261,2215,253.2C2252.3,245,2289,147,2326,122.5C2363.1,98,2400,147,2437,212.3C2473.8,278,2511,359,2548,400.2C2584.6,441,2622,441,2640,441L2658.5,441L2658.5,490L2640,490C2621.5,490,2585,490,2548,490C2510.8,490,2474,490,2437,490C2400,490,2363,490,2326,490C2289.2,490,2252,490,2215,490C2178.5,490,2142,490,2105,490C2067.7,490,2031,490,1994,490C1956.9,490,1920,490,1883,490C1846.2,490,1809,490,1772,490C1735.4,490,1698,490,1662,490C1624.6,490,1588,490,1551,490C1513.8,490,1477,490,1440,490C1403.1,490,1366,490,1329,490C1292.3,490,1255,490,1218,490C1181.5,490,1145,490,1108,490C1070.8,490,1034,490,997,490C960,490,923,490,886,490C849.2,490,812,490,775,490C738.5,490,702,490,665,490C627.7,490,591,490,554,490C516.9,490,480,490,443,490C406.2,490,369,490,332,490C295.4,490,258,490,222,490C184.6,490,148,490,111,490C73.8,490,37,490,18,490L0,490Z"/></svg>