<?xml version="1.0" standalone="no"?>
<svg xmlns:xlink="http://www.w3.org/1999/xlink" id="wave" style="transform:rotate(180deg); transition: 0.3s" viewBox="0 0 1440 490" version="1.1" xmlns="http://www.w3.org/2000/svg"><defs><linearGradient id="sw-gradient-0" x1="0" x2="0" y1="1" y2="0"><stop stop-color="rgba(62, 114.243, 243, 1)" offset="0%"/><stop stop-color="rgba(11, 255, 213.673, 1)" offset="100%"/></linearGradient></defs><path style="transform:translate(0, 0px); opacity:1" fill="url(#sw-gradient-0)" d="M0,392L15,326.7C30,261,60,131,90,106.2C120,82,150,163,180,179.7C210,196,240,147,270,171.5C300,196,330,294,360,302.2C390,310,420,229,450,171.5C480,114,510,82,540,65.3C570,49,600,49,630,40.8C660,33,690,16,720,40.8C750,65,780,131,810,196C840,261,870,327,900,310.3C930,294,960,196,990,171.5C1020,147,1050,196,1080,179.7C1110,163,1140,82,1170,89.8C1200,98,1230,196,1260,212.3C1290,229,1320,163,1350,147C1380,131,1410,163,1440,179.7C1470,196,1500,196,1530,163.3C1560,131,1590,65,1620,49C1650,33,1680,65,1710,122.5C1740,180,1770,261,1800,253.2C1830,245,1860,147,1890,122.5C1920,98,1950,147,1980,212.3C2010,278,2040,359,2070,400.2C2100,441,2130,441,2145,441L2160,441L2160,490L2145,490C2130,490,2100,490,2070,490C2040,490,2010,490,1980,490C1950,490,1920,490,1890,490C1860,490,1830,490,1800,490C1770,490,1740,490,1710,490C1680,490,1650,490,1620,490C1590,490,1560,490,1530,490C1500,490,1470,490,1440,490C1410,490,1380,490,1350,490C1320,490,1290,490,1260,490C1230,490,1200,490,1170,490C1140,490,1110,490,1080,490C1050,490,1020,490,990,490C960,490,930,490,900,490C870,490,840,490,810,490C780,490,750,490,720,490C690,490,660,490,630,490C600,490,570,490,540,490C510,490,480,490,450,490C420,490,390,490,360,490C330,490,300,490,270,490C240,490,210,490,180,490C150,490,120,490,90,490C60,490,30,490,15,490L0,490Z"/></svg>