<svg width="100%" height="100%" id="svg" viewBox="0 0 1440 590" xmlns="http://www.w3.org/2000/svg" class="transition duration-300 ease-in-out delay-150"><defs><linearGradient id="gradient" x1="0%" y1="50%" x2="100%" y2="50%"><stop offset="5%" stop-color="#0693e3"></stop><stop offset="95%" stop-color="#8ED1FC"></stop></linearGradient></defs><path d="M 0,600 C 0,600 0,300 0,300 C 59.948954505802405,229.485077585979 119.89790901160481,158.97015517195806 166,192 C 212.1020909883952,225.02984482804194 244.35731845938307,361.60445689814685 293,404 C 341.64268154061693,446.39554310185315 406.6728171508631,394.61201723545435 450,379 C 493.3271828491369,363.38798276454565 514.9514129371646,383.94747416003594 552,356 C 589.0485870628354,328.05252583996406 641.5215311004785,251.5980861244019 700,259 C 758.4784688995215,266.4019138755981 822.9624626609216,357.66018134235645 875,360 C 927.0375373390784,362.33981865764355 966.6286182558356,275.7611885061725 1012,242 C 1057.3713817441644,208.23881149382748 1108.5230643157367,227.29506463295354 1160,243 C 1211.4769356842633,258.70493536704646 1263.279124481218,271.05855296201327 1310,280 C 1356.720875518782,288.94144703798673 1398.360437759391,294.4707235189934 1440,300 C 1440,300 1440,600 1440,600 Z" stroke="none" stroke-width="0" fill="url(#gradient)" fill-opacity="1" class="transition-all duration-300 ease-in-out delay-150 path-0" transform="rotate(-180 720 300)"></path></svg>